<?xml version="1.0" encoding="iso-8859-1"?>
<!-- Uploaded to: SVG Repo, www.svgrepo.com, Generator: SVG Repo Mixer Tools -->
<svg height="800px" width="800px" version="1.1" id="Layer_1" xmlns="http://www.w3.org/2000/svg" xmlns:xlink="http://www.w3.org/1999/xlink" 
	 viewBox="0 0 504.669 504.669" xml:space="preserve">
<g>
	<polygon style="fill:#46F8FF;" points="291.035,341.804 291.215,341.804 469.835,504.669 469.835,179.129"/>
	<polygon style="fill:#9BFBFF;" points="469.835,179.129 336.764,179.129 336.764,278.528 252.335,278.528 167.905,278.528 
		167.905,179.129 34.835,179.129 252.335,376.899"/>
	<polygon style="fill:#00E7F0;" points="291.035,341.804 252.335,376.899 213.545,341.804 34.835,504.669 469.835,504.669 
		291.215,341.804"/>
	<polygon style="fill:#46F8FF;" points="34.835,179.129 34.835,504.669 213.545,341.804"/>
	<polygon style="fill:#2488FF;" points="252.335,278.528 252.335,0 102.576,164.099 167.905,164.099 167.905,179.129 
		167.905,278.528 "/>
	<polygon style="fill:#005ECE;" points="336.764,278.528 336.764,179.129 336.764,164.099 402.094,164.099 252.335,0 
		252.335,278.528"/>
</g>
</svg>